<svg xmlns="http://www.w3.org/2000/svg" version="1.1" xmlns:xlink="http://www.w3.org/1999/xlink" width="512" height="512" x="0" y="0" viewBox="0 0 64 64" style="enable-background:new 0 0 512 512" xml:space="preserve" class=""><g><path fill="#f2f2f2" d="M61 42v15c0 .55-.45 1-1 1H4c-.55 0-1-.45-1-1V42h23l2 4h8l2-4z" opacity="1" data-original="#f2f2f2" class=""></path><path fill="#bfbfbf" d="M14 16h36v10H14z" opacity="1" data-original="#bfbfbf" class=""></path><path fill="#8c8c8c" d="M61 42h-6l-5-16V16z" opacity="1" data-original="#8c8c8c" class=""></path><path fill="#595959" d="M55 42H38l-2 4h-8l-2-4H9l5-16h36z" opacity="1" data-original="#595959" class=""></path><path fill="#8c8c8c" d="M14 16v10L9 42H3z" opacity="1" data-original="#8c8c8c" class=""></path><path fill="#bfbfbf" d="M49 51h7c.55 0 1-.45 1-1s-.45-1-1-1h-7c-.55 0-1 .45-1 1s.45 1 1 1zM56 53h-7c-.55 0-1 .45-1 1s.45 1 1 1h7c.55 0 1-.45 1-1s-.45-1-1-1z" opacity="1" data-original="#bfbfbf" class=""></path><path fill="#f2f2f2" d="M32 6c-7.72 0-14 6.28-14 14 0 6.5 4.52 12.17 10.81 13.63l2.33 3.88c.18.3.51.49.86.49s.68-.18.86-.49l2.33-3.88C41.48 32.17 46 26.5 46 20c0-7.72-6.28-14-14-14z" opacity="1" data-original="#f2f2f2" class=""></path><path fill="#595959" d="M37.71 14.29a.996.996 0 0 0-1.41 0l-4.29 4.29-4.29-4.29a.996.996 0 1 0-1.41 1.41l4.29 4.29-4.29 4.29a.996.996 0 0 0 .71 1.7c.26 0 .51-.1.71-.29l4.29-4.29 4.29 4.29c.2.2.45.29.71.29s.51-.1.71-.29a.996.996 0 0 0 0-1.41l-4.29-4.29 4.29-4.29a.996.996 0 0 0 0-1.41z" opacity="1" data-original="#595959" class=""></path></g></svg>