<svg fill="#FFFFFF" role="img" viewBox="0 0 18 18" xmlns="http://www.w3.org/2000/svg"><title>Azure Synapse Analytics</title><path d="M9 0L1.15 4.49v8.97L9 18l7.85-4.49v-9zm6.4 12.57L9 16.27l-6.4-3.661V5.38L9 1.68l6.4 3.71z"/><path d="M9 0L1.15 4.49l1.45.89L9 1.68l6.4 3.7 1.45-.89L9 0z"/><path d="M12.74 10.475a.73.73 0 0 0-.323-.286 5.835 5.835 0 0 0-4.478-3.346L14.416 3.1l-1.506-.864L5.534 6.5a.75.75 0 0 0 .376 1.4.684.684 0 0 0 .09-.023l.125.523a4.319 4.319 0 0 1 4.837 2.238l-7.349 4.247 1.5.866 7.353-4.251a.729.729 0 0 0 .242-.236l.075-.018c-.007-.029-.018-.055-.025-.084a.735.735 0 0 0-.018-.687z"/><path d="M12.091 9.013a1.85 1.85 0 1 0 1.85 1.85 1.85 1.85 0 0 0-1.85-1.85zM5.909 5.267a1.85 1.85 0 1 0 1.85 1.85 1.85 1.85 0 0 0-1.85-1.85z"/></svg>
